<?xml version="1.0" encoding="UTF-8" standalone="no"?>
<!-- Created with Inkscape (http://www.inkscape.org/) -->

<svg
   xmlns:dc="http://purl.org/dc/elements/1.1/"
   xmlns:cc="http://creativecommons.org/ns#"
   xmlns:rdf="http://www.w3.org/1999/02/22-rdf-syntax-ns#"
   xmlns:svg="http://www.w3.org/2000/svg"
   xmlns="http://www.w3.org/2000/svg"
   xmlns:xlink="http://www.w3.org/1999/xlink"
   xmlns:sodipodi="http://sodipodi.sourceforge.net/DTD/sodipodi-0.dtd"
   xmlns:inkscape="http://www.inkscape.org/namespaces/inkscape"
   width="51.173206mm"
   height="51.191025mm"
   viewBox="0 0 181.32239 181.38553"
   id="svg2"
   version="1.1"
   inkscape:version="0.92.3 (2405546, 2018-03-11)"
   sodipodi:docname="background.svg">
  <defs
     id="defs4">
    <linearGradient
       inkscape:collect="always"
       id="linearGradient6249">
      <stop
         style="stop-color:#000080;stop-opacity:1;"
         offset="0"
         id="stop6245" />
      <stop
         id="stop6932"
         offset="0.50481534"
         style="stop-color:#1a1a1a;stop-opacity:1" />
      <stop
         style="stop-color:#073c7e;stop-opacity:1;"
         offset="0.98830789"
         id="stop6934" />
      <stop
         id="stop6936"
         offset="0.99872184"
         style="stop-color:#0d3260;stop-opacity:1" />
      <stop
         id="stop6255"
         offset="0.99872184"
         style="stop-color:#004aa5;stop-opacity:1;" />
      <stop
         id="stop6253"
         offset="1"
         style="stop-color:#00ffff;stop-opacity:1" />
      <stop
         style="stop-color:#000080;stop-opacity:0;"
         offset="1"
         id="stop6247" />
    </linearGradient>
    <linearGradient
       inkscape:collect="always"
       id="linearGradient22065">
      <stop
         style="stop-color:#000000;stop-opacity:1"
         offset="0"
         id="stop22067" />
      <stop
         id="stop22073"
         offset="0.75487471"
         style="stop-color:#000000;stop-opacity:0.82352941;" />
      <stop
         style="stop-color:#939393;stop-opacity:1"
         offset="1"
         id="stop22069" />
    </linearGradient>
    <marker
       inkscape:isstock="true"
       style="overflow:visible"
       id="marker21057"
       refX="0"
       refY="0"
       orient="auto"
       inkscape:stockid="Arrow1Lstart">
      <path
         transform="matrix(0.8,0,0,0.8,10,0)"
         style="fill:#000000;fill-opacity:0.98571424;fill-rule:evenodd;stroke:none;stroke-width:1pt;stroke-opacity:0.66666667"
         d="M 0,0 5,-5 -12.5,0 5,5 0,0 Z"
         id="path21059"
         inkscape:connector-curvature="0" />
    </marker>
    <marker
       inkscape:isstock="true"
       style="overflow:visible"
       id="marker20599"
       refX="0"
       refY="0"
       orient="auto"
       inkscape:stockid="Arrow1Lstart">
      <path
         transform="matrix(0.8,0,0,0.8,10,0)"
         style="fill:#000000;fill-opacity:1;fill-rule:evenodd;stroke:none;stroke-width:1pt;stroke-opacity:0.66666667"
         d="M 0,0 5,-5 -12.5,0 5,5 0,0 Z"
         id="path20601"
         inkscape:connector-curvature="0" />
    </marker>
    <marker
       inkscape:stockid="Arrow1Lstart"
       orient="auto"
       refY="0"
       refX="0"
       id="marker19151"
       style="overflow:visible"
       inkscape:isstock="true">
      <path
         id="path19153"
         d="M 0,0 5,-5 -12.5,0 5,5 0,0 Z"
         style="fill:#000000;fill-opacity:0.98571424;fill-rule:evenodd;stroke:none;stroke-width:1pt;stroke-opacity:0.66666667"
         transform="matrix(0.8,0,0,0.8,10,0)"
         inkscape:connector-curvature="0" />
    </marker>
    <marker
       inkscape:stockid="Arrow1Lstart"
       orient="auto"
       refY="0"
       refX="0"
       id="marker18763"
       style="overflow:visible"
       inkscape:isstock="true">
      <path
         id="path18765"
         d="M 0,0 5,-5 -12.5,0 5,5 0,0 Z"
         style="fill:#000000;fill-opacity:0.98571424;fill-rule:evenodd;stroke:none;stroke-width:1pt;stroke-opacity:0.66666667"
         transform="matrix(0.8,0,0,0.8,10,0)"
         inkscape:connector-curvature="0" />
    </marker>
    <marker
       inkscape:stockid="Arrow1Lstart"
       orient="auto"
       refY="0"
       refX="0"
       id="marker18381"
       style="overflow:visible"
       inkscape:isstock="true">
      <path
         id="path18383"
         d="M 0,0 5,-5 -12.5,0 5,5 0,0 Z"
         style="fill:#000000;fill-opacity:0.98571424;fill-rule:evenodd;stroke:none;stroke-width:1pt;stroke-opacity:0.66666667"
         transform="matrix(0.8,0,0,0.8,10,0)"
         inkscape:connector-curvature="0" />
    </marker>
    <marker
       inkscape:stockid="Arrow1Lstart"
       orient="auto"
       refY="0"
       refX="0"
       id="marker18005"
       style="overflow:visible"
       inkscape:isstock="true">
      <path
         id="path18007"
         d="M 0,0 5,-5 -12.5,0 5,5 0,0 Z"
         style="fill:#000000;fill-opacity:0.98571424;fill-rule:evenodd;stroke:none;stroke-width:1pt;stroke-opacity:0.66666667"
         transform="matrix(0.8,0,0,0.8,10,0)"
         inkscape:connector-curvature="0" />
    </marker>
    <marker
       inkscape:stockid="Arrow1Lstart"
       orient="auto"
       refY="0"
       refX="0"
       id="marker17635"
       style="overflow:visible"
       inkscape:isstock="true">
      <path
         id="path17637"
         d="M 0,0 5,-5 -12.5,0 5,5 0,0 Z"
         style="fill:#000000;fill-opacity:0.98571424;fill-rule:evenodd;stroke:none;stroke-width:1pt;stroke-opacity:0.66666667"
         transform="matrix(0.8,0,0,0.8,10,0)"
         inkscape:connector-curvature="0" />
    </marker>
    <marker
       inkscape:stockid="Arrow1Lstart"
       orient="auto"
       refY="0"
       refX="0"
       id="marker17271"
       style="overflow:visible"
       inkscape:isstock="true">
      <path
         id="path17273"
         d="M 0,0 5,-5 -12.5,0 5,5 0,0 Z"
         style="fill:#000000;fill-opacity:0.98571424;fill-rule:evenodd;stroke:none;stroke-width:1pt;stroke-opacity:0.66666667"
         transform="matrix(0.8,0,0,0.8,10,0)"
         inkscape:connector-curvature="0" />
    </marker>
    <marker
       inkscape:stockid="Arrow1Lstart"
       orient="auto"
       refY="0"
       refX="0"
       id="marker16913"
       style="overflow:visible"
       inkscape:isstock="true">
      <path
         id="path16915"
         d="M 0,0 5,-5 -12.5,0 5,5 0,0 Z"
         style="fill:#000000;fill-opacity:0.98571424;fill-rule:evenodd;stroke:none;stroke-width:1pt;stroke-opacity:0.66666667"
         transform="matrix(0.8,0,0,0.8,10,0)"
         inkscape:connector-curvature="0" />
    </marker>
    <marker
       inkscape:stockid="Arrow1Lstart"
       orient="auto"
       refY="0"
       refX="0"
       id="marker16561"
       style="overflow:visible"
       inkscape:isstock="true">
      <path
         id="path16563"
         d="M 0,0 5,-5 -12.5,0 5,5 0,0 Z"
         style="fill:#000000;fill-opacity:0.98571424;fill-rule:evenodd;stroke:none;stroke-width:1pt;stroke-opacity:0.66666667"
         transform="matrix(0.8,0,0,0.8,10,0)"
         inkscape:connector-curvature="0" />
    </marker>
    <marker
       inkscape:stockid="Arrow1Lstart"
       orient="auto"
       refY="0"
       refX="0"
       id="marker16215"
       style="overflow:visible"
       inkscape:isstock="true">
      <path
         id="path16217"
         d="M 0,0 5,-5 -12.5,0 5,5 0,0 Z"
         style="fill:#000000;fill-opacity:0.98571424;fill-rule:evenodd;stroke:none;stroke-width:1pt;stroke-opacity:0.66666667"
         transform="matrix(0.8,0,0,0.8,10,0)"
         inkscape:connector-curvature="0" />
    </marker>
    <marker
       inkscape:stockid="Arrow1Lstart"
       orient="auto"
       refY="0"
       refX="0"
       id="marker15875"
       style="overflow:visible"
       inkscape:isstock="true">
      <path
         id="path15877"
         d="M 0,0 5,-5 -12.5,0 5,5 0,0 Z"
         style="fill:#000000;fill-opacity:0.98571424;fill-rule:evenodd;stroke:none;stroke-width:1pt;stroke-opacity:0.66666667"
         transform="matrix(0.8,0,0,0.8,10,0)"
         inkscape:connector-curvature="0" />
    </marker>
    <marker
       inkscape:stockid="Arrow1Lstart"
       orient="auto"
       refY="0"
       refX="0"
       id="marker15541"
       style="overflow:visible"
       inkscape:isstock="true">
      <path
         id="path15543"
         d="M 0,0 5,-5 -12.5,0 5,5 0,0 Z"
         style="fill:#000000;fill-opacity:0.98571424;fill-rule:evenodd;stroke:none;stroke-width:1pt;stroke-opacity:0.66666667"
         transform="matrix(0.8,0,0,0.8,10,0)"
         inkscape:connector-curvature="0" />
    </marker>
    <marker
       inkscape:stockid="Arrow1Lstart"
       orient="auto"
       refY="0"
       refX="0"
       id="marker15213"
       style="overflow:visible"
       inkscape:isstock="true">
      <path
         id="path15215"
         d="M 0,0 5,-5 -12.5,0 5,5 0,0 Z"
         style="fill:#000000;fill-opacity:0.98571424;fill-rule:evenodd;stroke:none;stroke-width:1pt;stroke-opacity:0.66666667"
         transform="matrix(0.8,0,0,0.8,10,0)"
         inkscape:connector-curvature="0" />
    </marker>
    <marker
       inkscape:stockid="Arrow1Lstart"
       orient="auto"
       refY="0"
       refX="0"
       id="marker14891"
       style="overflow:visible"
       inkscape:isstock="true">
      <path
         id="path14893"
         d="M 0,0 5,-5 -12.5,0 5,5 0,0 Z"
         style="fill:#000000;fill-opacity:0.98571424;fill-rule:evenodd;stroke:none;stroke-width:1pt;stroke-opacity:0.66666667"
         transform="matrix(0.8,0,0,0.8,10,0)"
         inkscape:connector-curvature="0" />
    </marker>
    <marker
       inkscape:stockid="Arrow1Lstart"
       orient="auto"
       refY="0"
       refX="0"
       id="marker14575"
       style="overflow:visible"
       inkscape:isstock="true">
      <path
         id="path14577"
         d="M 0,0 5,-5 -12.5,0 5,5 0,0 Z"
         style="fill:#000000;fill-opacity:0.98571424;fill-rule:evenodd;stroke:none;stroke-width:1pt;stroke-opacity:0.66666667"
         transform="matrix(0.8,0,0,0.8,10,0)"
         inkscape:connector-curvature="0" />
    </marker>
    <marker
       inkscape:stockid="Arrow1Lstart"
       orient="auto"
       refY="0"
       refX="0"
       id="marker14265"
       style="overflow:visible"
       inkscape:isstock="true">
      <path
         id="path14267"
         d="M 0,0 5,-5 -12.5,0 5,5 0,0 Z"
         style="fill:#000000;fill-opacity:0.98571424;fill-rule:evenodd;stroke:none;stroke-width:1pt;stroke-opacity:0.66666667"
         transform="matrix(0.8,0,0,0.8,10,0)"
         inkscape:connector-curvature="0" />
    </marker>
    <marker
       inkscape:stockid="Arrow1Lstart"
       orient="auto"
       refY="0"
       refX="0"
       id="marker13961"
       style="overflow:visible"
       inkscape:isstock="true">
      <path
         id="path13963"
         d="M 0,0 5,-5 -12.5,0 5,5 0,0 Z"
         style="fill:#000000;fill-opacity:0.98571424;fill-rule:evenodd;stroke:none;stroke-width:1pt;stroke-opacity:0.66666667"
         transform="matrix(0.8,0,0,0.8,10,0)"
         inkscape:connector-curvature="0" />
    </marker>
    <marker
       inkscape:stockid="Arrow1Lstart"
       orient="auto"
       refY="0"
       refX="0"
       id="marker13663"
       style="overflow:visible"
       inkscape:isstock="true">
      <path
         id="path13665"
         d="M 0,0 5,-5 -12.5,0 5,5 0,0 Z"
         style="fill:#000000;fill-opacity:0.98571424;fill-rule:evenodd;stroke:none;stroke-width:1pt;stroke-opacity:0.66666667"
         transform="matrix(0.8,0,0,0.8,10,0)"
         inkscape:connector-curvature="0" />
    </marker>
    <marker
       inkscape:stockid="Arrow1Lstart"
       orient="auto"
       refY="0"
       refX="0"
       id="marker13371"
       style="overflow:visible"
       inkscape:isstock="true">
      <path
         id="path13373"
         d="M 0,0 5,-5 -12.5,0 5,5 0,0 Z"
         style="fill:#000000;fill-opacity:0.98571424;fill-rule:evenodd;stroke:none;stroke-width:1pt;stroke-opacity:0.66666667"
         transform="matrix(0.8,0,0,0.8,10,0)"
         inkscape:connector-curvature="0" />
    </marker>
    <marker
       inkscape:stockid="Arrow1Lstart"
       orient="auto"
       refY="0"
       refX="0"
       id="marker13085"
       style="overflow:visible"
       inkscape:isstock="true">
      <path
         id="path13087"
         d="M 0,0 5,-5 -12.5,0 5,5 0,0 Z"
         style="fill:#000000;fill-opacity:0.98571424;fill-rule:evenodd;stroke:none;stroke-width:1pt;stroke-opacity:0.66666667"
         transform="matrix(0.8,0,0,0.8,10,0)"
         inkscape:connector-curvature="0" />
    </marker>
    <marker
       inkscape:stockid="Arrow1Lstart"
       orient="auto"
       refY="0"
       refX="0"
       id="marker12805"
       style="overflow:visible"
       inkscape:isstock="true">
      <path
         id="path12807"
         d="M 0,0 5,-5 -12.5,0 5,5 0,0 Z"
         style="fill:#000000;fill-opacity:0.98571424;fill-rule:evenodd;stroke:none;stroke-width:1pt;stroke-opacity:0.66666667"
         transform="matrix(0.8,0,0,0.8,10,0)"
         inkscape:connector-curvature="0" />
    </marker>
    <marker
       inkscape:stockid="Arrow1Lstart"
       orient="auto"
       refY="0"
       refX="0"
       id="marker12531"
       style="overflow:visible"
       inkscape:isstock="true">
      <path
         id="path12533"
         d="M 0,0 5,-5 -12.5,0 5,5 0,0 Z"
         style="fill:#000000;fill-opacity:0.98571424;fill-rule:evenodd;stroke:none;stroke-width:1pt;stroke-opacity:0.66666667"
         transform="matrix(0.8,0,0,0.8,10,0)"
         inkscape:connector-curvature="0" />
    </marker>
    <marker
       inkscape:stockid="Arrow1Lstart"
       orient="auto"
       refY="0"
       refX="0"
       id="marker12263"
       style="overflow:visible"
       inkscape:isstock="true">
      <path
         id="path12265"
         d="M 0,0 5,-5 -12.5,0 5,5 0,0 Z"
         style="fill:#000000;fill-opacity:0.98571424;fill-rule:evenodd;stroke:none;stroke-width:1pt;stroke-opacity:0.66666667"
         transform="matrix(0.8,0,0,0.8,10,0)"
         inkscape:connector-curvature="0" />
    </marker>
    <marker
       inkscape:stockid="Arrow1Lstart"
       orient="auto"
       refY="0"
       refX="0"
       id="marker12001"
       style="overflow:visible"
       inkscape:isstock="true">
      <path
         id="path12003"
         d="M 0,0 5,-5 -12.5,0 5,5 0,0 Z"
         style="fill:#000000;fill-opacity:0.98571424;fill-rule:evenodd;stroke:none;stroke-width:1pt;stroke-opacity:0.66666667"
         transform="matrix(0.8,0,0,0.8,10,0)"
         inkscape:connector-curvature="0" />
    </marker>
    <marker
       inkscape:stockid="Arrow1Lstart"
       orient="auto"
       refY="0"
       refX="0"
       id="marker11745"
       style="overflow:visible"
       inkscape:isstock="true">
      <path
         id="path11747"
         d="M 0,0 5,-5 -12.5,0 5,5 0,0 Z"
         style="fill:#000000;fill-opacity:0.98571424;fill-rule:evenodd;stroke:none;stroke-width:1pt;stroke-opacity:0.66666667"
         transform="matrix(0.8,0,0,0.8,10,0)"
         inkscape:connector-curvature="0" />
    </marker>
    <marker
       inkscape:stockid="Arrow1Lstart"
       orient="auto"
       refY="0"
       refX="0"
       id="marker11495"
       style="overflow:visible"
       inkscape:isstock="true">
      <path
         id="path11497"
         d="M 0,0 5,-5 -12.5,0 5,5 0,0 Z"
         style="fill:#000000;fill-opacity:0.98571424;fill-rule:evenodd;stroke:none;stroke-width:1pt;stroke-opacity:0.66666667"
         transform="matrix(0.8,0,0,0.8,10,0)"
         inkscape:connector-curvature="0" />
    </marker>
    <marker
       inkscape:stockid="Arrow1Lstart"
       orient="auto"
       refY="0"
       refX="0"
       id="marker11251"
       style="overflow:visible"
       inkscape:isstock="true">
      <path
         id="path11253"
         d="M 0,0 5,-5 -12.5,0 5,5 0,0 Z"
         style="fill:#000000;fill-opacity:0.98571424;fill-rule:evenodd;stroke:none;stroke-width:1pt;stroke-opacity:0.66666667"
         transform="matrix(0.8,0,0,0.8,10,0)"
         inkscape:connector-curvature="0" />
    </marker>
    <marker
       inkscape:stockid="Arrow1Lstart"
       orient="auto"
       refY="0"
       refX="0"
       id="marker11013"
       style="overflow:visible"
       inkscape:isstock="true">
      <path
         id="path11015"
         d="M 0,0 5,-5 -12.5,0 5,5 0,0 Z"
         style="fill:#000000;fill-opacity:0.98571424;fill-rule:evenodd;stroke:none;stroke-width:1pt;stroke-opacity:0.66666667"
         transform="matrix(0.8,0,0,0.8,10,0)"
         inkscape:connector-curvature="0" />
    </marker>
    <marker
       inkscape:stockid="Arrow1Lstart"
       orient="auto"
       refY="0"
       refX="0"
       id="marker10781"
       style="overflow:visible"
       inkscape:isstock="true">
      <path
         id="path10783"
         d="M 0,0 5,-5 -12.5,0 5,5 0,0 Z"
         style="fill:#000000;fill-opacity:0.98571424;fill-rule:evenodd;stroke:none;stroke-width:1pt;stroke-opacity:0.66666667"
         transform="matrix(0.8,0,0,0.8,10,0)"
         inkscape:connector-curvature="0" />
    </marker>
    <marker
       inkscape:stockid="Arrow1Lstart"
       orient="auto"
       refY="0"
       refX="0"
       id="marker10555"
       style="overflow:visible"
       inkscape:isstock="true">
      <path
         id="path10557"
         d="M 0,0 5,-5 -12.5,0 5,5 0,0 Z"
         style="fill:#000000;fill-opacity:0.98571424;fill-rule:evenodd;stroke:none;stroke-width:1pt;stroke-opacity:0.66666667"
         transform="matrix(0.8,0,0,0.8,10,0)"
         inkscape:connector-curvature="0" />
    </marker>
    <marker
       inkscape:stockid="Arrow1Lstart"
       orient="auto"
       refY="0"
       refX="0"
       id="marker10335"
       style="overflow:visible"
       inkscape:isstock="true">
      <path
         id="path10337"
         d="M 0,0 5,-5 -12.5,0 5,5 0,0 Z"
         style="fill:#000000;fill-opacity:0.98571424;fill-rule:evenodd;stroke:none;stroke-width:1pt;stroke-opacity:0.66666667"
         transform="matrix(0.8,0,0,0.8,10,0)"
         inkscape:connector-curvature="0" />
    </marker>
    <marker
       inkscape:stockid="Arrow1Lstart"
       orient="auto"
       refY="0"
       refX="0"
       id="marker10121"
       style="overflow:visible"
       inkscape:isstock="true">
      <path
         id="path10123"
         d="M 0,0 5,-5 -12.5,0 5,5 0,0 Z"
         style="fill:#000000;fill-opacity:0.98571424;fill-rule:evenodd;stroke:none;stroke-width:1pt;stroke-opacity:0.66666667"
         transform="matrix(0.8,0,0,0.8,10,0)"
         inkscape:connector-curvature="0" />
    </marker>
    <marker
       inkscape:stockid="Arrow1Lstart"
       orient="auto"
       refY="0"
       refX="0"
       id="marker9913"
       style="overflow:visible"
       inkscape:isstock="true">
      <path
         id="path9915"
         d="M 0,0 5,-5 -12.5,0 5,5 0,0 Z"
         style="fill:#000000;fill-opacity:0.98571424;fill-rule:evenodd;stroke:none;stroke-width:1pt;stroke-opacity:0.66666667"
         transform="matrix(0.8,0,0,0.8,10,0)"
         inkscape:connector-curvature="0" />
    </marker>
    <marker
       inkscape:stockid="Arrow1Lstart"
       orient="auto"
       refY="0"
       refX="0"
       id="marker9711"
       style="overflow:visible"
       inkscape:isstock="true">
      <path
         id="path9713"
         d="M 0,0 5,-5 -12.5,0 5,5 0,0 Z"
         style="fill:#000000;fill-opacity:0.98571424;fill-rule:evenodd;stroke:none;stroke-width:1pt;stroke-opacity:0.66666667"
         transform="matrix(0.8,0,0,0.8,10,0)"
         inkscape:connector-curvature="0" />
    </marker>
    <marker
       inkscape:stockid="Arrow1Lstart"
       orient="auto"
       refY="0"
       refX="0"
       id="marker9515"
       style="overflow:visible"
       inkscape:isstock="true">
      <path
         id="path9517"
         d="M 0,0 5,-5 -12.5,0 5,5 0,0 Z"
         style="fill:#000000;fill-opacity:0.98571424;fill-rule:evenodd;stroke:none;stroke-width:1pt;stroke-opacity:0.66666667"
         transform="matrix(0.8,0,0,0.8,10,0)"
         inkscape:connector-curvature="0" />
    </marker>
    <marker
       inkscape:stockid="Arrow1Lstart"
       orient="auto"
       refY="0"
       refX="0"
       id="marker9325"
       style="overflow:visible"
       inkscape:isstock="true">
      <path
         id="path9327"
         d="M 0,0 5,-5 -12.5,0 5,5 0,0 Z"
         style="fill:#000000;fill-opacity:0.98571424;fill-rule:evenodd;stroke:none;stroke-width:1pt;stroke-opacity:0.66666667"
         transform="matrix(0.8,0,0,0.8,10,0)"
         inkscape:connector-curvature="0" />
    </marker>
    <marker
       inkscape:stockid="Arrow1Lstart"
       orient="auto"
       refY="0"
       refX="0"
       id="marker9141"
       style="overflow:visible"
       inkscape:isstock="true">
      <path
         id="path9143"
         d="M 0,0 5,-5 -12.5,0 5,5 0,0 Z"
         style="fill:#000000;fill-opacity:0.98571424;fill-rule:evenodd;stroke:none;stroke-width:1pt;stroke-opacity:0.66666667"
         transform="matrix(0.8,0,0,0.8,10,0)"
         inkscape:connector-curvature="0" />
    </marker>
    <marker
       inkscape:stockid="Arrow1Lstart"
       orient="auto"
       refY="0"
       refX="0"
       id="marker8963"
       style="overflow:visible"
       inkscape:isstock="true">
      <path
         id="path8965"
         d="M 0,0 5,-5 -12.5,0 5,5 0,0 Z"
         style="fill:#000000;fill-opacity:0.98571424;fill-rule:evenodd;stroke:none;stroke-width:1pt;stroke-opacity:0.66666667"
         transform="matrix(0.8,0,0,0.8,10,0)"
         inkscape:connector-curvature="0" />
    </marker>
    <marker
       inkscape:stockid="Arrow1Lstart"
       orient="auto"
       refY="0"
       refX="0"
       id="marker8791"
       style="overflow:visible"
       inkscape:isstock="true">
      <path
         id="path8793"
         d="M 0,0 5,-5 -12.5,0 5,5 0,0 Z"
         style="fill:#000000;fill-opacity:0.98571424;fill-rule:evenodd;stroke:none;stroke-width:1pt;stroke-opacity:0.66666667"
         transform="matrix(0.8,0,0,0.8,10,0)"
         inkscape:connector-curvature="0" />
    </marker>
    <marker
       inkscape:stockid="Arrow1Lstart"
       orient="auto"
       refY="0"
       refX="0"
       id="marker8625"
       style="overflow:visible"
       inkscape:isstock="true">
      <path
         id="path8627"
         d="M 0,0 5,-5 -12.5,0 5,5 0,0 Z"
         style="fill:#000000;fill-opacity:0.98571424;fill-rule:evenodd;stroke:none;stroke-width:1pt;stroke-opacity:0.66666667"
         transform="matrix(0.8,0,0,0.8,10,0)"
         inkscape:connector-curvature="0" />
    </marker>
    <marker
       inkscape:stockid="Arrow1Lstart"
       orient="auto"
       refY="0"
       refX="0"
       id="marker8465"
       style="overflow:visible"
       inkscape:isstock="true">
      <path
         id="path8467"
         d="M 0,0 5,-5 -12.5,0 5,5 0,0 Z"
         style="fill:#000000;fill-opacity:0.98571424;fill-rule:evenodd;stroke:none;stroke-width:1pt;stroke-opacity:0.66666667"
         transform="matrix(0.8,0,0,0.8,10,0)"
         inkscape:connector-curvature="0" />
    </marker>
    <marker
       inkscape:stockid="Arrow1Lstart"
       orient="auto"
       refY="0"
       refX="0"
       id="marker8311"
       style="overflow:visible"
       inkscape:isstock="true">
      <path
         id="path8313"
         d="M 0,0 5,-5 -12.5,0 5,5 0,0 Z"
         style="fill:#000000;fill-opacity:0.98571424;fill-rule:evenodd;stroke:none;stroke-width:1pt;stroke-opacity:0.66666667"
         transform="matrix(0.8,0,0,0.8,10,0)"
         inkscape:connector-curvature="0" />
    </marker>
    <marker
       inkscape:stockid="Arrow1Lstart"
       orient="auto"
       refY="0"
       refX="0"
       id="marker8163"
       style="overflow:visible"
       inkscape:isstock="true">
      <path
         id="path8165"
         d="M 0,0 5,-5 -12.5,0 5,5 0,0 Z"
         style="fill:#000000;fill-opacity:0.98571424;fill-rule:evenodd;stroke:none;stroke-width:1pt;stroke-opacity:0.66666667"
         transform="matrix(0.8,0,0,0.8,10,0)"
         inkscape:connector-curvature="0" />
    </marker>
    <marker
       inkscape:stockid="Arrow1Lstart"
       orient="auto"
       refY="0"
       refX="0"
       id="marker8021"
       style="overflow:visible"
       inkscape:isstock="true">
      <path
         id="path8023"
         d="M 0,0 5,-5 -12.5,0 5,5 0,0 Z"
         style="fill:#000000;fill-opacity:0.98571424;fill-rule:evenodd;stroke:none;stroke-width:1pt;stroke-opacity:0.66666667"
         transform="matrix(0.8,0,0,0.8,10,0)"
         inkscape:connector-curvature="0" />
    </marker>
    <marker
       inkscape:stockid="Arrow1Lstart"
       orient="auto"
       refY="0"
       refX="0"
       id="marker7885"
       style="overflow:visible"
       inkscape:isstock="true">
      <path
         id="path7887"
         d="M 0,0 5,-5 -12.5,0 5,5 0,0 Z"
         style="fill:#000000;fill-opacity:0.98571424;fill-rule:evenodd;stroke:none;stroke-width:1pt;stroke-opacity:0.66666667"
         transform="matrix(0.8,0,0,0.8,10,0)"
         inkscape:connector-curvature="0" />
    </marker>
    <marker
       inkscape:stockid="Arrow1Lstart"
       orient="auto"
       refY="0"
       refX="0"
       id="marker7755"
       style="overflow:visible"
       inkscape:isstock="true">
      <path
         id="path7757"
         d="M 0,0 5,-5 -12.5,0 5,5 0,0 Z"
         style="fill:#000000;fill-opacity:0.98571424;fill-rule:evenodd;stroke:none;stroke-width:1pt;stroke-opacity:0.66666667"
         transform="matrix(0.8,0,0,0.8,10,0)"
         inkscape:connector-curvature="0" />
    </marker>
    <marker
       inkscape:stockid="Arrow1Lstart"
       orient="auto"
       refY="0"
       refX="0"
       id="marker7631"
       style="overflow:visible"
       inkscape:isstock="true">
      <path
         id="path7633"
         d="M 0,0 5,-5 -12.5,0 5,5 0,0 Z"
         style="fill:#000000;fill-opacity:0.98571424;fill-rule:evenodd;stroke:none;stroke-width:1pt;stroke-opacity:0.66666667"
         transform="matrix(0.8,0,0,0.8,10,0)"
         inkscape:connector-curvature="0" />
    </marker>
    <marker
       inkscape:stockid="Arrow1Lstart"
       orient="auto"
       refY="0"
       refX="0"
       id="marker7513"
       style="overflow:visible"
       inkscape:isstock="true">
      <path
         id="path7515"
         d="M 0,0 5,-5 -12.5,0 5,5 0,0 Z"
         style="fill:#000000;fill-opacity:0.98571424;fill-rule:evenodd;stroke:none;stroke-width:1pt;stroke-opacity:0.66666667"
         transform="matrix(0.8,0,0,0.8,10,0)"
         inkscape:connector-curvature="0" />
    </marker>
    <marker
       inkscape:stockid="Arrow1Lstart"
       orient="auto"
       refY="0"
       refX="0"
       id="marker7401"
       style="overflow:visible"
       inkscape:isstock="true">
      <path
         id="path7403"
         d="M 0,0 5,-5 -12.5,0 5,5 0,0 Z"
         style="fill:#000000;fill-opacity:0.98571424;fill-rule:evenodd;stroke:none;stroke-width:1pt;stroke-opacity:0.66666667"
         transform="matrix(0.8,0,0,0.8,10,0)"
         inkscape:connector-curvature="0" />
    </marker>
    <marker
       inkscape:stockid="Arrow1Lstart"
       orient="auto"
       refY="0"
       refX="0"
       id="marker7295"
       style="overflow:visible"
       inkscape:isstock="true">
      <path
         id="path7297"
         d="M 0,0 5,-5 -12.5,0 5,5 0,0 Z"
         style="fill:#000000;fill-opacity:0.98571424;fill-rule:evenodd;stroke:none;stroke-width:1pt;stroke-opacity:0.66666667"
         transform="matrix(0.8,0,0,0.8,10,0)"
         inkscape:connector-curvature="0" />
    </marker>
    <marker
       inkscape:stockid="Arrow1Lstart"
       orient="auto"
       refY="0"
       refX="0"
       id="marker7195"
       style="overflow:visible"
       inkscape:isstock="true">
      <path
         id="path7197"
         d="M 0,0 5,-5 -12.5,0 5,5 0,0 Z"
         style="fill:#000000;fill-opacity:0.98571424;fill-rule:evenodd;stroke:none;stroke-width:1pt;stroke-opacity:0.66666667"
         transform="matrix(0.8,0,0,0.8,10,0)"
         inkscape:connector-curvature="0" />
    </marker>
    <marker
       inkscape:stockid="Arrow1Lstart"
       orient="auto"
       refY="0"
       refX="0"
       id="marker7101"
       style="overflow:visible"
       inkscape:isstock="true">
      <path
         id="path7103"
         d="M 0,0 5,-5 -12.5,0 5,5 0,0 Z"
         style="fill:#000000;fill-opacity:0.98571424;fill-rule:evenodd;stroke:none;stroke-width:1pt;stroke-opacity:0.66666667"
         transform="matrix(0.8,0,0,0.8,10,0)"
         inkscape:connector-curvature="0" />
    </marker>
    <marker
       inkscape:stockid="Arrow1Lstart"
       orient="auto"
       refY="0"
       refX="0"
       id="marker7013"
       style="overflow:visible"
       inkscape:isstock="true">
      <path
         id="path7015"
         d="M 0,0 5,-5 -12.5,0 5,5 0,0 Z"
         style="fill:#000000;fill-opacity:0.98571424;fill-rule:evenodd;stroke:none;stroke-width:1pt;stroke-opacity:0.66666667"
         transform="matrix(0.8,0,0,0.8,10,0)"
         inkscape:connector-curvature="0" />
    </marker>
    <marker
       inkscape:stockid="Arrow1Lstart"
       orient="auto"
       refY="0"
       refX="0"
       id="marker6931"
       style="overflow:visible"
       inkscape:isstock="true">
      <path
         id="path6933"
         d="M 0,0 5,-5 -12.5,0 5,5 0,0 Z"
         style="fill:#000000;fill-opacity:0.98571424;fill-rule:evenodd;stroke:none;stroke-width:1pt;stroke-opacity:0.66666667"
         transform="matrix(0.8,0,0,0.8,10,0)"
         inkscape:connector-curvature="0" />
    </marker>
    <marker
       inkscape:stockid="Arrow1Lstart"
       orient="auto"
       refY="0"
       refX="0"
       id="marker6855"
       style="overflow:visible"
       inkscape:isstock="true">
      <path
         id="path6857"
         d="M 0,0 5,-5 -12.5,0 5,5 0,0 Z"
         style="fill:#000000;fill-opacity:0.98571424;fill-rule:evenodd;stroke:none;stroke-width:1pt;stroke-opacity:0.66666667"
         transform="matrix(0.8,0,0,0.8,10,0)"
         inkscape:connector-curvature="0" />
    </marker>
    <marker
       inkscape:stockid="Arrow1Lstart"
       orient="auto"
       refY="0"
       refX="0"
       id="marker6785"
       style="overflow:visible"
       inkscape:isstock="true">
      <path
         id="path6787"
         d="M 0,0 5,-5 -12.5,0 5,5 0,0 Z"
         style="fill:#000000;fill-opacity:0.98571424;fill-rule:evenodd;stroke:none;stroke-width:1pt;stroke-opacity:0.66666667"
         transform="matrix(0.8,0,0,0.8,10,0)"
         inkscape:connector-curvature="0" />
    </marker>
    <marker
       inkscape:stockid="Arrow1Lstart"
       orient="auto"
       refY="0"
       refX="0"
       id="marker6721"
       style="overflow:visible"
       inkscape:isstock="true">
      <path
         id="path6723"
         d="M 0,0 5,-5 -12.5,0 5,5 0,0 Z"
         style="fill:#000000;fill-opacity:0.98571424;fill-rule:evenodd;stroke:none;stroke-width:1pt;stroke-opacity:0.66666667"
         transform="matrix(0.8,0,0,0.8,10,0)"
         inkscape:connector-curvature="0" />
    </marker>
    <marker
       inkscape:stockid="Arrow1Lstart"
       orient="auto"
       refY="0"
       refX="0"
       id="marker6663"
       style="overflow:visible"
       inkscape:isstock="true">
      <path
         id="path6665"
         d="M 0,0 5,-5 -12.5,0 5,5 0,0 Z"
         style="fill:#000000;fill-opacity:0.98571424;fill-rule:evenodd;stroke:none;stroke-width:1pt;stroke-opacity:0.66666667"
         transform="matrix(0.8,0,0,0.8,10,0)"
         inkscape:connector-curvature="0" />
    </marker>
    <marker
       inkscape:stockid="Arrow1Lstart"
       orient="auto"
       refY="0"
       refX="0"
       id="marker6611"
       style="overflow:visible"
       inkscape:isstock="true">
      <path
         id="path6613"
         d="M 0,0 5,-5 -12.5,0 5,5 0,0 Z"
         style="fill:#000000;fill-opacity:0.98571424;fill-rule:evenodd;stroke:none;stroke-width:1pt;stroke-opacity:0.66666667"
         transform="matrix(0.8,0,0,0.8,10,0)"
         inkscape:connector-curvature="0" />
    </marker>
    <marker
       inkscape:stockid="Arrow1Lstart"
       orient="auto"
       refY="0"
       refX="0"
       id="marker6565"
       style="overflow:visible"
       inkscape:isstock="true">
      <path
         id="path6567"
         d="M 0,0 5,-5 -12.5,0 5,5 0,0 Z"
         style="fill:#000000;fill-opacity:0.98571424;fill-rule:evenodd;stroke:none;stroke-width:1pt;stroke-opacity:0.66666667"
         transform="matrix(0.8,0,0,0.8,10,0)"
         inkscape:connector-curvature="0" />
    </marker>
    <marker
       inkscape:stockid="Arrow1Lstart"
       orient="auto"
       refY="0"
       refX="0"
       id="marker6525"
       style="overflow:visible"
       inkscape:isstock="true">
      <path
         id="path6527"
         d="M 0,0 5,-5 -12.5,0 5,5 0,0 Z"
         style="fill:#000000;fill-opacity:0.98571424;fill-rule:evenodd;stroke:none;stroke-width:1pt;stroke-opacity:0.66666667"
         transform="matrix(0.8,0,0,0.8,10,0)"
         inkscape:connector-curvature="0" />
    </marker>
    <marker
       inkscape:stockid="Arrow1Lstart"
       orient="auto"
       refY="0"
       refX="0"
       id="marker6491"
       style="overflow:visible"
       inkscape:isstock="true">
      <path
         id="path6493"
         d="M 0,0 5,-5 -12.5,0 5,5 0,0 Z"
         style="fill:#000000;fill-opacity:0.98571424;fill-rule:evenodd;stroke:none;stroke-width:1pt;stroke-opacity:0.66666667"
         transform="matrix(0.8,0,0,0.8,10,0)"
         inkscape:connector-curvature="0" />
    </marker>
    <marker
       inkscape:stockid="Arrow1Lstart"
       orient="auto"
       refY="0"
       refX="0"
       id="marker6463"
       style="overflow:visible"
       inkscape:isstock="true">
      <path
         id="path6465"
         d="M 0,0 5,-5 -12.5,0 5,5 0,0 Z"
         style="fill:#000000;fill-opacity:0.98571424;fill-rule:evenodd;stroke:none;stroke-width:1pt;stroke-opacity:0.66666667"
         transform="matrix(0.8,0,0,0.8,10,0)"
         inkscape:connector-curvature="0" />
    </marker>
    <marker
       inkscape:stockid="Arrow1Lstart"
       orient="auto"
       refY="0"
       refX="0"
       id="marker6441"
       style="overflow:visible"
       inkscape:isstock="true">
      <path
         id="path6443"
         d="M 0,0 5,-5 -12.5,0 5,5 0,0 Z"
         style="fill:#000000;fill-opacity:0.98571424;fill-rule:evenodd;stroke:none;stroke-width:1pt;stroke-opacity:0.66666667"
         transform="matrix(0.8,0,0,0.8,10,0)"
         inkscape:connector-curvature="0" />
    </marker>
    <marker
       inkscape:stockid="Arrow1Lstart"
       orient="auto"
       refY="0"
       refX="0"
       id="Arrow1Lstart"
       style="overflow:visible"
       inkscape:isstock="true">
      <path
         id="path6171"
         d="M 0,0 5,-5 -12.5,0 5,5 0,0 Z"
         style="fill:#000000;fill-opacity:0.98571424;fill-rule:evenodd;stroke:none;stroke-width:1pt;stroke-opacity:0.66666667"
         transform="matrix(0.8,0,0,0.8,10,0)"
         inkscape:connector-curvature="0" />
    </marker>
    <radialGradient
       inkscape:collect="always"
       xlink:href="#linearGradient22065"
       id="radialGradient22071"
       cx="806.07104"
       cy="107.32679"
       fx="806.07104"
       fy="107.32679"
       r="90.661201"
       gradientUnits="userSpaceOnUse"
       gradientTransform="translate(-27.129264,0.48712421)" />
    <radialGradient
       inkscape:collect="always"
       xlink:href="#linearGradient6249"
       id="radialGradient6251"
       cx="778.74933"
       cy="108.06949"
       fx="778.74933"
       fy="108.06949"
       r="90.468755"
       gradientUnits="userSpaceOnUse"
       gradientTransform="matrix(1.0051813,0,0,1.0051813,-3.5662186,-1.0286955)" />
  </defs>
  <sodipodi:namedview
     id="base"
     pagecolor="#ffffff"
     bordercolor="#666666"
     borderopacity="1.0"
     inkscape:pageopacity="0.0"
     inkscape:pageshadow="2"
     inkscape:zoom="5.6"
     inkscape:cx="111.6495"
     inkscape:cy="149.36927"
     inkscape:document-units="px"
     inkscape:current-layer="layer1"
     showgrid="false"
     inkscape:window-width="1680"
     inkscape:window-height="991"
     inkscape:window-x="2560"
     inkscape:window-y="390"
     inkscape:window-maximized="1"
     showborder="false"
     fit-margin-top="0"
     fit-margin-left="0"
     fit-margin-right="0"
     fit-margin-bottom="0" />
  <metadata
     id="metadata7">
    <rdf:RDF>
      <cc:Work
         rdf:about="">
        <dc:format>image/svg+xml</dc:format>
        <dc:type
           rdf:resource="http://purl.org/dc/dcmitype/StillImage" />
        <dc:title></dc:title>
      </cc:Work>
    </rdf:RDF>
  </metadata>
  <g
     inkscape:label="Layer 1"
     inkscape:groupmode="layer"
     id="layer1"
     transform="translate(-688.28058,-17.152705)">
    <path
       style="fill:#008080;stroke-width:0.50507629"
       d=""
       id="path673"
       inkscape:connector-curvature="0"
       transform="matrix(0.93750005,0,0,0.93750005,688.28058,17.152705)" />
    <path
       style="fill:#008080;stroke-width:0.50507629"
       d=""
       id="path679"
       inkscape:connector-curvature="0"
       transform="matrix(0.93750005,0,0,0.93750005,688.28058,17.152705)" />
    <path
       style="fill:#008080;stroke-width:0.50507629"
       d=""
       id="path683"
       inkscape:connector-curvature="0"
       transform="matrix(0.93750005,0,0,0.93750005,688.28058,17.152705)" />
    <path
       style="fill:#00ffff;stroke-width:0.50507629"
       d=""
       id="path689"
       inkscape:connector-curvature="0"
       transform="matrix(0.93750005,0,0,0.93750005,688.28058,17.152705)" />
    <path
       style="fill:#000080;stroke-width:0.50507629"
       d=""
       id="path715"
       inkscape:connector-curvature="0"
       transform="matrix(0.93750005,0,0,0.93750005,688.28058,17.152705)" />
    <path
       style="fill:url(#radialGradient6251);stroke-width:0.91163343"
       d="m 870.15559,107.6006 a 90.937513,90.937489 0 0 1 -90.93751,90.93764 90.937513,90.937489 0 0 1 -90.9375,-90.93764 90.937513,90.937489 0 0 1 90.9375,-90.93737 90.937513,90.937489 0 0 1 90.93751,90.93737 z"
       id="path727"
       inkscape:connector-curvature="0" />
  </g>
</svg>
